<?xml version="1.0" encoding="utf-8"?>
<!-- Generator: Adobe Illustrator 15.0.0, SVG Export Plug-In  -->
<!DOCTYPE svg PUBLIC "-//W3C//DTD SVG 1.1//EN" "http://www.w3.org/Graphics/SVG/1.1/DTD/svg11.dtd" [
	<!ENTITY ns_flows "http://ns.adobe.com/Flows/1.0/">
]>
<svg version="1.1"
	 xmlns="http://www.w3.org/2000/svg" xmlns:xlink="http://www.w3.org/1999/xlink" xmlns:a="http://ns.adobe.com/AdobeSVGViewerExtensions/3.0/"
	 x="0px" y="0px" width="102px" height="57px" viewBox="-1.206 -1.775 102 57"
	 overflow="visible" enable-background="new -1.206 -1.775 102 57" xml:space="preserve">
<defs>
</defs>
<path fill="#1A1A1A" d="M9.206,47.011c-0.07-1.311-0.153-2.887-0.14-4.058H9.025c-0.32,1.103-0.712,2.286-1.186,3.57l-1.66,4.56
	h-0.92L3.74,46.606c-0.447-1.325-0.823-2.538-1.087-3.653h-0.03c-0.027,1.171-0.097,2.747-0.18,4.155l-0.251,4.03H1.034l0.655-9.398
	h1.548l1.604,4.547c0.39,1.157,0.711,2.188,0.947,3.164h0.042c0.238-0.948,0.572-1.98,0.991-3.164l1.673-4.547h1.548l0.584,9.398
	H9.443L9.206,47.011z"/>
<path fill="#1A1A1A" d="M13.991,42.493c0.014,0.418-0.293,0.753-0.781,0.753c-0.432,0-0.739-0.335-0.739-0.753
	c0-0.432,0.322-0.767,0.767-0.767C13.698,41.727,13.991,42.062,13.991,42.493z M12.625,51.139V44.39h1.228v6.749H12.625z"/>
<path fill="#1A1A1A" d="M17.366,42.771v1.618h1.758v0.934h-1.758v3.64c0,0.838,0.236,1.312,0.92,1.312
	c0.335,0,0.53-0.027,0.712-0.084l0.055,0.921c-0.236,0.098-0.612,0.182-1.087,0.182c-0.572,0-1.032-0.195-1.324-0.53
	c-0.349-0.363-0.474-0.962-0.474-1.758v-3.682h-1.046V44.39h1.046v-1.242L17.366,42.771z"/>
<path fill="#1A1A1A" d="M20.506,46.495c0-0.795-0.015-1.478-0.057-2.105h1.073l0.043,1.324h0.055
	c0.308-0.906,1.047-1.478,1.869-1.478c0.14,0,0.238,0.014,0.349,0.042v1.156c-0.125-0.027-0.25-0.041-0.418-0.041
	c-0.865,0-1.478,0.655-1.646,1.575c-0.027,0.168-0.057,0.363-0.057,0.572v3.598h-1.211V46.495z"/>
<path fill="#1A1A1A" d="M29.737,49.521c0,0.585,0.028,1.157,0.113,1.617h-1.117l-0.098-0.851h-0.041
	c-0.377,0.53-1.103,1.005-2.065,1.005c-1.366,0-2.063-0.963-2.063-1.938c0-1.632,1.451-2.524,4.058-2.51v-0.141
	c0-0.558-0.153-1.562-1.533-1.562c-0.628,0-1.284,0.195-1.757,0.502l-0.28-0.81c0.559-0.362,1.367-0.599,2.218-0.599
	c2.063,0,2.565,1.408,2.565,2.761V49.521z M28.553,47.694c-1.339-0.028-2.859,0.21-2.859,1.521c0,0.795,0.53,1.171,1.157,1.171
	c0.878,0,1.436-0.558,1.631-1.13c0.042-0.125,0.071-0.265,0.071-0.389V47.694z"/>
<path fill="#1A1A1A" d="M36.237,48.183l-0.976,2.956h-1.255l3.193-9.398h1.465l3.206,9.398h-1.297l-1.003-2.956H36.237z
	 M39.318,47.234l-0.919-2.705c-0.209-0.614-0.348-1.172-0.488-1.715h-0.028c-0.139,0.557-0.293,1.129-0.475,1.7l-0.92,2.72H39.318z"
	/>
<path fill="#1A1A1A" d="M48.874,41.238v8.158c0,0.599,0.013,1.282,0.055,1.742h-1.101l-0.057-1.171h-0.027
	c-0.376,0.753-1.199,1.325-2.301,1.325c-1.631,0-2.887-1.381-2.887-3.432c-0.014-2.246,1.382-3.625,3.027-3.625
	c1.032,0,1.73,0.487,2.036,1.032h0.028v-4.03H48.874z M47.646,47.137c0-0.153-0.015-0.362-0.056-0.516
	c-0.182-0.781-0.851-1.423-1.772-1.423c-1.268,0-2.021,1.116-2.021,2.607c0,1.368,0.67,2.497,1.994,2.497
	c0.824,0,1.576-0.544,1.799-1.464c0.041-0.169,0.056-0.336,0.056-0.531V47.137z"/>
<path fill="#1A1A1A" d="M52.278,42.493c0.014,0.418-0.292,0.753-0.781,0.753c-0.432,0-0.738-0.335-0.738-0.753
	c0-0.432,0.32-0.767,0.767-0.767C51.986,41.727,52.278,42.062,52.278,42.493z M50.913,51.139V44.39h1.227v6.749H50.913z"/>
<path fill="#1A1A1A" d="M54.175,46.593c0-0.865-0.028-1.562-0.058-2.203h1.103l0.057,1.157h0.028
	c0.502-0.823,1.296-1.311,2.398-1.311c1.632,0,2.858,1.379,2.858,3.43c0,2.427-1.478,3.627-3.068,3.627
	c-0.893,0-1.674-0.392-2.078-1.06h-0.028V53.9h-1.212V46.593z M55.387,48.392c0,0.181,0.028,0.349,0.057,0.502
	c0.225,0.851,0.963,1.437,1.84,1.437c1.298,0,2.052-1.06,2.052-2.607c0-1.353-0.711-2.51-2.009-2.51
	c-0.837,0-1.617,0.599-1.855,1.52c-0.041,0.153-0.084,0.334-0.084,0.502V48.392z"/>
<path fill="#1A1A1A" d="M62.794,47.987c0.027,1.659,1.088,2.343,2.314,2.343c0.879,0,1.408-0.152,1.87-0.349l0.208,0.879
	c-0.432,0.194-1.171,0.433-2.245,0.433c-2.077,0-3.318-1.381-3.318-3.418c0-2.035,1.198-3.639,3.164-3.639
	c2.204,0,2.789,1.938,2.789,3.18c0,0.25-0.027,0.445-0.041,0.571H62.794z M66.392,47.108c0.016-0.78-0.32-1.994-1.701-1.994
	c-1.241,0-1.783,1.144-1.881,1.994H66.392z"/>
<path fill="#1A1A1A" d="M69.099,46.495c0-0.795-0.014-1.478-0.056-2.105h1.072l0.044,1.324h0.056
	c0.308-0.906,1.045-1.478,1.869-1.478c0.139,0,0.236,0.014,0.346,0.042v1.156c-0.123-0.027-0.249-0.041-0.415-0.041
	c-0.866,0-1.479,0.655-1.647,1.575c-0.026,0.168-0.055,0.363-0.055,0.572v3.598h-1.214V46.495z"/>
<path fill="#1A1A1A" d="M74.928,47.486h0.029c0.168-0.239,0.403-0.531,0.6-0.769l1.979-2.328h1.479l-2.607,2.775l2.97,3.974h-1.492
	l-2.328-3.234l-0.629,0.696v2.538h-1.213v-9.9h1.213V47.486z"/>
<path fill="#1A1A1A" d="M85.25,49.521c0,0.585,0.028,1.157,0.112,1.617h-1.116l-0.099-0.851h-0.041
	c-0.376,0.53-1.102,1.005-2.064,1.005c-1.365,0-2.063-0.963-2.063-1.938c0-1.632,1.45-2.524,4.057-2.51v-0.141
	c0-0.558-0.151-1.562-1.532-1.562c-0.628,0-1.282,0.195-1.757,0.502l-0.28-0.81c0.56-0.362,1.367-0.599,2.219-0.599
	c2.063,0,2.565,1.408,2.565,2.761V49.521z M84.064,47.694c-1.339-0.028-2.857,0.21-2.857,1.521c0,0.795,0.529,1.171,1.156,1.171
	c0.879,0,1.437-0.558,1.631-1.13c0.041-0.125,0.07-0.265,0.07-0.389V47.694z"/>
<path fill="#1A1A1A" d="M87.064,49.884c0.363,0.237,1.002,0.488,1.618,0.488c0.891,0,1.31-0.445,1.31-1.004
	c0-0.586-0.349-0.906-1.255-1.241c-1.213-0.433-1.785-1.102-1.785-1.91c0-1.088,0.879-1.98,2.329-1.98
	c0.684,0,1.283,0.195,1.658,0.418l-0.306,0.893c-0.265-0.168-0.753-0.391-1.38-0.391c-0.726,0-1.13,0.418-1.13,0.921
	c0,0.557,0.404,0.809,1.282,1.144c1.173,0.445,1.771,1.032,1.771,2.035c0,1.186-0.92,2.037-2.523,2.037
	c-0.739,0-1.423-0.195-1.898-0.475L87.064,49.884z"/>
<path fill="#1A1A1A" d="M97.495,49.521c0,0.585,0.028,1.157,0.112,1.617h-1.115l-0.099-0.851h-0.041
	c-0.377,0.53-1.101,1.005-2.064,1.005c-1.365,0-2.063-0.963-2.063-1.938c0-1.632,1.449-2.524,4.059-2.51v-0.141
	c0-0.558-0.154-1.562-1.535-1.562c-0.627,0-1.282,0.195-1.756,0.502l-0.279-0.81c0.558-0.362,1.367-0.599,2.217-0.599
	c2.063,0,2.565,1.408,2.565,2.761V49.521z M96.309,47.694c-1.338-0.028-2.857,0.21-2.857,1.521c0,0.795,0.531,1.171,1.156,1.171
	c0.88,0,1.438-0.558,1.632-1.13c0.043-0.125,0.069-0.265,0.069-0.389V47.694z"/>
<path fill="#E10717" d="M39.005,28.716c0.174,1.609,0.491,4.115,2.413,4.741c1.296,0.403,2.458,0.403,2.908,0.403
	c0.22,0,0.357,0.043,0.357,0.224c0,0.267-0.402,0.402-0.94,0.402c-0.983,0-5.814-0.046-7.471-0.179
	c-1.027-0.089-1.25-0.224-1.25-0.447c0-0.18,0.091-0.27,0.313-0.313c0.222-0.044,0.269-0.807,0.176-1.609L33.368,8.724h-0.134
	L22.276,31.98c-0.94,1.968-1.075,2.37-1.478,2.37c-0.312,0-0.537-0.447-1.386-2.056c-1.165-2.192-5.011-9.93-5.233-10.378
	c-0.403-0.802-5.414-11.539-5.906-12.747H8.096l-1.79,20.753c-0.045,0.717-0.045,1.521-0.045,2.282c0,0.671,0.491,1.252,1.167,1.386
	c0.758,0.178,1.429,0.226,1.697,0.226c0.181,0,0.36,0.087,0.36,0.223c0,0.312-0.271,0.401-0.808,0.401
	c-1.654,0-3.8-0.133-4.162-0.133c-0.4,0-2.545,0.133-3.754,0.133c-0.445,0-0.76-0.09-0.76-0.401c0-0.136,0.224-0.223,0.448-0.223
	c0.357,0,0.669,0,1.342-0.136c1.473-0.269,1.609-2.013,1.789-3.712L6.796,0.806C6.845,0.314,7.022,0,7.29,0
	c0.269,0,0.447,0.18,0.672,0.671l13.687,28.135l13.148-28.09C34.976,0.314,35.157,0,35.471,0c0.312,0,0.445,0.358,0.537,1.208
	L39.005,28.716z"/>
<path fill="#E10717" d="M59.935,6.128c-2.596,5.994-8.59,21.604-9.574,24.825c-0.222,0.67-0.4,1.297-0.4,1.699
	c0,0.357,0.132,0.805,0.58,1.028c0.539,0.18,1.209,0.18,1.7,0.18c0.27,0,0.494,0.045,0.494,0.27c0,0.267-0.272,0.356-0.985,0.356
	c-1.789,0-3.846-0.134-4.383-0.134c-0.269,0-2.191,0.134-3.489,0.134c-0.49,0-0.761-0.09-0.761-0.313s0.18-0.312,0.538-0.312
	c0.312,0,1.297,0,2.146-0.536c0.582-0.404,1.255-1.164,2.461-4.205c0.491-1.253,2.726-6.62,5.009-12.123
	c2.729-6.529,4.74-11.36,5.77-13.551c1.253-2.684,1.431-3.399,1.88-3.399c0.535,0,0.761,0.625,1.609,2.771l10.958,27.418
	c0.984,2.507,1.654,2.997,3.221,3.444c0.669,0.18,1.432,0.18,1.702,0.18c0.266,0,0.356,0.134,0.356,0.312
	c0,0.268-0.449,0.313-1.163,0.313c-2.148,0-4.698-0.134-5.234-0.134c-0.448,0-2.458,0.134-4.159,0.134
	c-0.804,0-1.206-0.09-1.206-0.313s0.135-0.312,0.445-0.312c0.492,0,1.297-0.044,1.701-0.224c0.492-0.225,0.579-0.581,0.579-0.894
	c0-0.583-0.536-1.969-1.207-3.714L59.935,6.128z"/>
<path fill="#E10717" d="M81.114,13.598c0-6.978,0-8.23-0.091-9.662c-0.088-1.521-0.446-2.237-1.922-2.55
	c-0.357-0.088-1.118-0.134-1.52-0.134c-0.179,0-0.361-0.089-0.361-0.268c0-0.269,0.226-0.358,0.717-0.358
	c2.013,0,4.695,0.134,5.057,0.134c0.984,0,3.577-0.134,5.634-0.134c5.592,0,7.604,1.88,8.317,2.55
	c0.986,0.939,2.238,2.952,2.238,5.323c0,6.352-4.648,10.645-11.001,10.645c-0.227,0-0.718,0-0.941-0.044
	c-0.223,0-0.489-0.09-0.489-0.314c0-0.356,0.267-0.402,1.204-0.402c4.34,0,7.738-3.175,7.738-7.289c0-1.477-0.134-4.474-2.504-6.89
	c-2.369-2.415-5.099-2.236-6.127-2.236c-0.761,0-1.522,0.09-1.923,0.269c-0.27,0.089-0.358,0.403-0.358,0.85V21.47
	c0,4.294,0,7.826,0.22,9.707c0.139,1.296,0.405,2.28,1.75,2.459c0.623,0.09,1.607,0.18,2.01,0.18c0.271,0,0.358,0.133,0.358,0.269
	c0,0.223-0.225,0.356-0.714,0.356c-2.462,0-5.278-0.134-5.501-0.134c-0.137,0-2.955,0.134-4.294,0.134
	c-0.494,0-0.717-0.09-0.717-0.356c0-0.136,0.089-0.269,0.356-0.269c0.404,0,0.941-0.09,1.344-0.18
	c0.895-0.179,1.117-1.163,1.297-2.459c0.223-1.881,0.223-5.412,0.223-9.707V13.598z"/>
<path fill="#E10717" d="M41.365,34.158c0,0,3.657-15.785,19.46-16.427c15.804-0.643,21.96-8.73,21.96-8.73
	s-6.94,13.091-21.96,12.668C45.033,21.225,41.365,34.158,41.365,34.158"/>
</svg>
